# xmcd
#
# Track frame offsets:
#	150
#	20588
#	38256
#	59231
#	76859
#	94579
#	109639
#	128253
#	149480
#	167166
#	182649
#	198195
#	214246
#	237125
#	255682
#	275851
#	297394
#	337238
#
# Disc length: 4755 seconds
#
# Revision: 0
# Processed by: cddbd v1.5.2PL0 Copyright (c) Steve Scherf et al.
# Submitted via: audiograbber 1.83.01
#
DISCID=0a129112
DTITLE=Various Artist - The best Arabian album 6 in the world ... ever
DYEAR=2005
DGENRE=Arabian
TTITLE0=Ragheb Alama - Nassini el dunia
TTITLE1=Nancy Ajram - Lawn oyounak
TTITLE2=Shereen - Ma btefrahshi
TTITLE3=Samira Saeed - Aweeni beek
TTITLE4=Elissa - Irham albi
TTITLE5=Hisham Abbas - Oul alaya magnoon
TTITLE6=Haifa - Ya hayat albi
TTITLE7=Darine Hadchiti - Eddam el kel
TTITLE8=Nawal al Zoghbi - Bi'eynak
TTITLE9=Mohamed Attieh - Ana el habib
TTITLE10=Ruby - Nazrah
TTITLE11=Carole Samaha - Ghali alayi
TTITLE12=Asalah - Meta shoofak
TTITLE13=Iwan - Ahlan wa sahlan
TTITLE14=Ranin - Habib albi
TTITLE15=Fatimah - Hadayak
TTITLE16=Diana Haddad - Sahibi
TTITLE17=- - data track
EXTD=
EXTT0=
EXTT1=
EXTT2=
EXTT3=
EXTT4=
EXTT5=
EXTT6=
EXTT7=
EXTT8=
EXTT9=
EXTT10=
EXTT11=
EXTT12=
EXTT13=
EXTT14=
EXTT15=
EXTT16=
EXTT17=
PLAYORDER=
